<?xml version="1.0" standalone="no"?>
<!DOCTYPE svg PUBLIC "-//W3C//DTD SVG 20010904//EN"
 "http://www.w3.org/TR/2001/REC-SVG-20010904/DTD/svg10.dtd">
<svg version="1.0" xmlns="http://www.w3.org/2000/svg"
 width="634.000000pt" height="634.000000pt" viewBox="0 0 634.000000 634.000000"
 preserveAspectRatio="xMidYMid meet">
<metadata>
Created by potrace 1.11, written by Peter Selinger 2001-2013
</metadata>
<g transform="translate(0.000000,634.000000) scale(0.100000,-0.100000)"
fill="#000000" stroke="none">
<path d="M2806 6325 c-27 -8 -63 -16 -80 -18 -69 -10 -244 -49 -291 -64 -27
-9 -66 -28 -85 -43 -49 -38 -95 -53 -110 -35 -10 12 -20 11 -62 -6 -27 -11
-66 -22 -85 -25 -41 -6 -264 -113 -288 -138 -9 -9 -28 -19 -43 -23 -15 -3 -37
-17 -50 -30 -17 -19 -26 -22 -36 -14 -14 12 -36 -4 -36 -26 0 -8 -9 -11 -27
-8 -30 6 -79 -27 -69 -44 7 -11 -33 -43 -44 -36 -4 3 -15 -4 -25 -15 -10 -11
-22 -20 -27 -20 -5 0 -25 -16 -44 -36 -27 -27 -39 -32 -49 -24 -8 7 -15 7 -19
1 -4 -5 -2 -12 4 -16 20 -12 9 -24 -27 -30 -60 -11 -73 -16 -73 -29 0 -9 9
-12 28 -8 l27 5 -35 -32 c-19 -18 -52 -44 -72 -57 -20 -14 -39 -32 -42 -40 -3
-8 -12 -14 -21 -14 -8 0 -84 -70 -168 -155 -149 -151 -179 -186 -256 -293 -39
-53 -84 -95 -93 -86 -3 2 -11 -2 -18 -11 -7 -8 -10 -15 -6 -15 3 0 -5 -22 -19
-50 -14 -27 -30 -50 -36 -50 -7 0 -9 -10 -5 -25 4 -14 1 -28 -6 -34 -69 -55
-92 -80 -112 -122 -13 -27 -19 -52 -15 -55 5 -3 9 -1 9 5 0 5 14 23 30 39 41
41 38 23 -5 -34 -19 -25 -35 -49 -35 -54 0 -4 -8 -6 -18 -3 -28 7 -82 -81 -82
-133 0 -22 -4 -44 -10 -50 -5 -5 -17 -38 -26 -74 -9 -36 -25 -77 -35 -91 -10
-14 -27 -57 -38 -95 -11 -38 -27 -93 -36 -121 -8 -29 -16 -55 -16 -58 0 -2 -6
-23 -14 -46 -8 -23 -15 -50 -15 -61 0 -17 2 -18 15 -8 24 20 26 8 8 -38 -16
-43 -35 -59 -26 -22 7 25 -12 27 -22 3 -13 -35 -17 -103 -6 -103 6 0 11 5 11
10 0 6 4 10 8 10 5 0 4 -33 0 -72 -5 -40 -9 -86 -9 -103 0 -42 -8 -66 -21 -59
-5 4 -8 18 -5 33 3 15 2 33 -4 41 -5 8 -9 13 -10 10 -18 -72 -14 -644 5 -775
24 -163 25 -165 57 -165 16 0 29 5 29 10 0 6 4 10 9 10 4 0 11 -26 14 -57 4
-32 10 -69 14 -82 5 -20 3 -23 -10 -18 -16 6 -23 -8 -18 -35 0 -5 -6 -8 -15
-8 -13 0 -15 -6 -9 -27 8 -35 14 -41 24 -25 6 10 12 4 21 -17 6 -17 12 -33 11
-36 -1 -3 6 -19 14 -35 9 -17 14 -30 11 -30 -2 0 7 -30 21 -67 14 -38 30 -81
35 -98 6 -16 25 -42 43 -57 21 -17 40 -49 55 -90 12 -35 28 -70 35 -78 7 -8
22 -33 34 -54 17 -33 18 -41 6 -50 -32 -25 -28 -59 17 -125 24 -36 49 -76 56
-90 14 -28 13 -26 73 -126 38 -62 96 -146 188 -270 37 -49 190 -205 260 -263
28 -24 51 -50 51 -58 0 -8 10 -19 22 -23 23 -9 51 -30 114 -83 17 -16 39 -28
48 -28 9 0 16 -6 16 -14 0 -34 246 -215 293 -216 16 0 26 -4 23 -9 -3 -5 0
-13 7 -18 16 -13 154 -60 192 -66 17 -3 38 -8 48 -12 10 -4 17 -3 17 3 0 17
99 -28 119 -54 15 -19 27 -23 67 -22 38 1 68 -8 137 -40 49 -23 92 -42 97 -42
4 0 61 -20 124 -45 116 -46 235 -80 311 -89 42 -5 103 -24 120 -36 9 -7 143
-6 600 3 112 2 145 6 166 20 14 9 48 20 75 23 27 3 70 14 96 25 50 20 117 35
203 45 46 6 160 45 263 92 31 14 58 18 91 16 40 -4 49 -1 57 15 5 11 36 38 69
60 55 36 61 38 77 24 24 -22 63 -12 150 38 40 23 93 53 118 67 57 32 120 81
120 93 0 16 -21 10 -68 -22 -46 -31 -82 -44 -82 -30 0 4 24 24 53 44 30 21 60
49 67 63 15 27 70 72 70 57 0 -5 -9 -16 -20 -26 -20 -17 -27 -47 -11 -47 5 0
24 18 41 40 18 23 49 49 70 60 21 10 40 28 43 39 3 12 13 24 24 28 10 3 20 10
23 13 3 4 28 25 56 46 138 106 181 141 209 170 17 17 40 34 53 38 20 7 21 5
12 -19 -19 -50 -6 -48 38 5 18 22 26 37 18 34 -8 -3 -20 -3 -25 1 -12 7 32 83
61 103 25 18 23 32 -7 32 -14 0 -24 3 -23 8 1 4 -3 17 -10 30 -12 21 -10 26
17 51 17 16 31 34 31 41 0 6 4 9 9 6 12 -8 101 81 101 99 0 8 20 26 44 40 24
14 63 52 87 83 23 31 51 65 61 74 11 9 21 26 23 37 9 47 45 84 73 74 6 -3 12
-11 12 -19 0 -22 16 -17 34 11 9 14 22 25 30 25 21 0 46 34 42 57 -3 11 7 45
21 74 13 30 26 64 27 76 2 13 10 31 19 41 9 10 22 41 27 68 6 27 12 59 15 72
9 40 16 76 21 107 3 17 11 50 19 75 8 25 16 57 19 72 3 15 8 33 12 39 4 6 8
28 10 48 4 57 24 148 59 272 7 26 9 52 6 58 -4 6 -5 39 -3 74 8 123 7 403 -1
430 -6 16 -5 32 0 40 6 6 11 58 12 115 3 109 -10 168 -40 190 -24 17 -37 62
-53 178 -25 177 -124 489 -209 659 -83 168 -134 264 -144 277 -6 7 -33 56 -59
108 -37 72 -68 115 -129 180 -45 47 -92 101 -105 120 -45 66 -168 207 -246
282 -62 60 -108 94 -153 116 -19 9 -29 18 -23 20 21 7 13 19 -29 46 -22 15
-39 32 -36 39 5 17 -48 57 -77 57 -37 0 -70 19 -162 92 -113 90 -219 155 -373
230 -86 41 -226 95 -271 104 -63 12 -126 27 -141 35 -9 4 -27 10 -40 13 -158
31 -232 48 -260 60 -19 8 -52 17 -74 21 -22 4 -44 8 -50 9 -146 35 -277 54
-304 44 -13 -5 -38 -6 -55 -3 -17 3 -123 8 -236 10 -155 3 -217 1 -254 -10z
m2015 -539 c15 -13 34 -26 41 -29 7 -2 10 -8 6 -12 -12 -13 -65 15 -76 41 -14
30 -7 30 29 0z m808 -870 c12 -22 21 -35 21 -28 0 6 5 12 10 12 6 0 10 -11 10
-24 0 -34 26 -59 49 -46 18 9 31 4 31 -11 0 -4 -9 -11 -20 -14 -16 -5 -18 -10
-10 -24 11 -21 4 -31 -19 -31 -16 0 -67 56 -92 100 -13 25 -15 31 -18 50 0 6
-8 10 -16 10 -13 0 -14 19 -6 79 2 12 43 -37 60 -73z m121 -207 c0 -10 6 -19
14 -19 18 0 45 -32 31 -37 -6 -2 -9 -22 -7 -46 2 -31 1 -38 -7 -27 -6 8 -11
28 -11 43 0 15 -7 30 -15 34 -9 3 -23 19 -31 36 -13 24 -13 31 -3 38 18 10 29
2 29 -22z m-5397 -204 c-3 -9 -8 -14 -10 -11 -3 3 -2 9 2 15 9 16 15 13 8 -4z
m5595 -44 c9 -25 8 -29 -4 -24 -8 3 -14 16 -14 29 0 32 6 30 18 -5z m32 -127
c0 -8 -4 -12 -10 -9 -5 3 -10 10 -10 16 0 5 5 9 10 9 6 0 10 -7 10 -16z m50
-75 c0 -6 -4 -7 -10 -4 -5 3 -10 11 -10 16 0 6 5 7 10 4 6 -3 10 -11 10 -16z
m-5760 -39 c0 -5 -5 -10 -11 -10 -5 0 -7 5 -4 10 3 6 8 10 11 10 2 0 4 -4 4
-10z m-37 -95 c-3 -9 -8 -14 -10 -11 -3 3 -2 9 2 15 9 16 15 13 8 -4z m5825
-14 c7 -16 15 -53 18 -82 3 -28 11 -70 19 -93 13 -37 13 -57 0 -44 -7 7 -65
215 -65 233 0 24 14 17 28 -14z m65 -51 c3 -11 1 -23 -4 -26 -5 -3 -9 1 -9 10
0 8 -3 22 -7 32 -4 11 -3 15 4 11 6 -4 13 -16 16 -27z m-5938 -60 c-9 -16 -17
-30 -20 -30 -2 0 1 14 6 30 6 17 15 30 20 30 5 0 3 -13 -6 -30z m-20 -100 c-3
-5 -11 -10 -16 -10 -6 0 -7 5 -4 10 3 6 11 10 16 10 6 0 7 -4 4 -10z m6005
-96 c6 -14 9 -33 9 -42 -1 -15 -2 -15 -6 1 -9 36 -25 16 -19 -25 3 -24 5 -46
5 -50 1 -5 8 -8 17 -8 8 0 12 -4 9 -10 -3 -5 -15 -10 -26 -10 -17 0 -24 16
-20 43 0 4 -5 7 -13 7 -20 0 -33 85 -16 105 19 23 49 18 60 -11z m-6105 -449
c1 -39 -3 -64 -9 -62 -14 5 -7 127 7 127 1 0 2 -29 2 -65z m3 -280 c0 -85 -3
-135 -7 -115 -11 51 -12 309 -2 285 5 -11 9 -87 9 -170z m6059 93 c-3 -8 -6
-5 -6 6 -1 11 2 17 5 13 3 -3 4 -12 1 -19z m-37 -64 c0 -19 -28 -30 -42 -16
-8 8 -8 15 1 26 14 17 41 10 41 -10z m-11 -73 c6 -10 9 -27 7 -37 -2 -11 -7
-40 -10 -66 -4 -26 -11 -50 -15 -53 -19 -11 -61 70 -61 119 0 12 12 28 28 38
36 21 39 21 51 -1z m-31 -243 c9 -25 9 -34 0 -39 -17 -11 -38 9 -38 36 0 45
21 46 38 3z m-14 -213 c-6 -16 -24 -21 -24 -7 0 11 11 22 21 22 5 0 6 -7 3
-15z m-5483 -1077 c11 -21 11 -22 -4 -9 -10 7 -17 17 -17 22 0 15 9 10 21 -13z
m110 -73 c4 3 12 -2 18 -9 10 -12 7 -14 -21 -9 -34 5 -58 19 -58 34 0 4 12 2
27 -6 15 -8 30 -12 34 -10z m59 -81 c0 -2 -9 0 -20 6 -11 6 -20 13 -20 16 0 2
9 0 20 -6 11 -6 20 -13 20 -16z m4580 -148 c-5 -5 -17 -5 -27 -2 -17 7 -17 8
1 22 16 11 21 11 27 2 5 -7 4 -17 -1 -22z m-4203 -41 c3 -9 3 -19 -1 -22 -7
-7 -36 16 -36 28 0 15 30 10 37 -6z m50 -51 c-3 -3 -12 -4 -19 -1 -8 3 -5 6 6
6 11 1 17 -2 13 -5z m4243 -13 c0 -5 -7 -11 -15 -15 -15 -5 -20 5 -8 17 9 10
23 9 23 -2z m-4080 -179 c0 -9 -7 -8 -25 5 -25 18 -31 34 -18 47 8 8 42 -33
43 -52z m-47 -26 c12 -13 36 -30 53 -39 34 -17 49 -42 33 -53 -6 -3 -13 3 -16
15 -3 12 -13 21 -22 21 -14 1 -91 63 -91 75 0 13 23 3 43 -19z m3752 -176
c-16 -16 -34 -30 -39 -30 -12 1 49 60 61 60 4 0 -6 -13 -22 -30z m-3608 -65
c4 -11 7 -25 7 -31 1 -7 12 -21 26 -32 14 -11 23 -23 20 -26 -11 -11 -61 40
-64 65 -2 14 -20 43 -42 63 l-39 38 42 -29 c24 -15 46 -37 50 -48z m1843 -585
c0 -5 -4 -10 -10 -10 -5 0 -10 5 -10 10 0 6 5 10 10 10 6 0 10 -4 10 -10z"/>
<path d="M6039 3008 c-5 -27 -6 -88 -1 -88 24 1 31 18 21 53 -8 31 -17 46 -20
35z"/>
<path d="M490 4779 c0 -5 5 -7 10 -4 6 3 10 8 10 11 0 2 -4 4 -10 4 -5 0 -10
-5 -10 -11z"/>
<path d="M56 3631 c-4 -7 -5 -15 -2 -18 9 -9 19 4 14 18 -4 11 -6 11 -12 0z"/>
<path d="M146 2288 c4 -32 34 -76 34 -50 0 15 -27 82 -33 82 -2 0 -3 -14 -1
-32z"/>
<path d="M180 2198 c0 -23 41 -128 51 -128 8 0 -22 96 -40 127 -9 16 -10 16
-11 1z"/>
<path d="M310 1946 c0 -8 5 -18 10 -21 6 -3 10 3 10 14 0 12 -4 21 -10 21 -5
0 -10 -6 -10 -14z"/>
<path d="M325 1890 c-11 -18 40 -94 56 -84 5 3 9 12 9 20 0 8 -4 13 -9 10 -5
-3 -16 10 -25 29 -18 38 -22 40 -31 25z"/>
<path d="M6097 1813 c-4 -3 -7 -16 -6 -27 0 -19 1 -19 10 3 10 24 8 36 -4 24z"/>
<path d="M5923 1633 c-14 -5 -18 -33 -5 -33 10 0 32 22 32 32 0 9 -8 9 -27 1z"/>
<path d="M5985 1610 c-16 -18 -16 -20 -2 -20 9 0 21 9 27 20 6 11 7 20 2 20
-5 0 -17 -9 -27 -20z"/>
<path d="M5932 1525 c-18 -40 -14 -50 8 -22 11 14 20 30 20 36 0 20 -17 11
-28 -14z"/>
<path d="M5876 1445 c-3 -8 -1 -15 4 -15 13 0 22 18 11 24 -5 3 -11 -1 -15 -9z"/>
<path d="M5337 892 c-10 -11 -14 -23 -9 -26 12 -7 35 19 30 34 -2 7 -11 3 -21
-8z"/>
<path d="M5266 825 c-23 -17 -13 -34 11 -19 19 12 29 34 16 34 -4 0 -17 -7
-27 -15z"/>
<path d="M5171 756 c-7 -9 -20 -16 -27 -16 -16 0 -19 -16 -5 -24 13 -8 55 28
50 43 -4 10 -8 9 -18 -3z"/>
<path d="M5042 668 c-19 -19 -14 -30 8 -18 11 6 20 15 20 20 0 14 -14 12 -28
-2z"/>
<path d="M1878 323 c6 -2 18 -2 25 0 6 3 1 5 -13 5 -14 0 -19 -2 -12 -5z"/>
<path d="M4516 301 c-4 -5 3 -7 14 -4 23 6 26 13 6 13 -8 0 -17 -4 -20 -9z"/>
</g>
</svg>
